<?xml version="1.0" encoding="UTF-8"?>
<svg id="Layer_1" xmlns="http://www.w3.org/2000/svg" version="1.1" viewBox="0 0 1560.9 639.6">
  <!-- Generator: Adobe Illustrator 29.0.1, SVG Export Plug-In . SVG Version: 2.1.0 Build 192)  -->
  <defs>
    <style>
      .st0 {
        fill: #aff9c8;
      }
    </style>
  </defs>
  <path class="st0" d="M98,498l-9.3,9.3v14.6l9.3,9.3h34.6v21.9c-9.2,6.2-21,9.8-32.4,9.8-28.6,0-47.8-20.4-47.8-50.7v-.4c0-28,20-49.9,45.6-49.9s28,5.7,37.8,14.2l13.2-1,10.5-12.4-1.1-13.1c-17.8-15-35.7-21.4-59.8-21.4s-44.1,9-59.3,25.5c-14.5,15.6-22.4,36.4-22.4,58.5v.4c0,22.9,7.9,43.8,22.2,59,15.2,16.1,36.1,24.6,60.5,24.6s53.9-15.3,64.2-24.4l3.1-6.9v-57.6l-9.3-9.3h-59.6Z"/>
  <path class="st0" d="M328.2,483.4v-.4c0-13.7-4.9-26.1-13.9-35-11.1-11.1-28-17.2-47.6-17.2h-62.1l-9.3,9.3v144.4l9.3,9.3h16.3l9.3-9.3v-46.8h27.3l39.1,52.4,7.5,3.7h20l7.4-14.9-36.2-48.2c20.9-8.2,32.9-25.1,32.9-47.3ZM230.3,464.4h35.3c10.3,0,27.6,2.5,27.6,19.2v.4c0,15-14.4,20.4-27.8,20.4h-35.1v-40Z"/>
  <polygon class="st0" points="389.7 560.3 389.7 528.4 459.2 528.4 468.5 519.1 468.5 504.2 459.2 494.9 389.7 494.9 389.7 464.2 468.5 464.2 477.8 454.9 477.8 440.1 468.5 430.8 364.1 430.8 354.8 440.1 354.8 584.5 364.1 593.8 469.5 593.8 478.8 584.5 478.8 569.6 469.5 560.3 389.7 560.3"/>
  <polygon class="st0" points="538.2 560.3 538.2 528.4 607.7 528.4 617 519.1 617 504.2 607.7 494.9 538.2 494.9 538.2 464.2 617 464.2 626.3 454.9 626.3 440.1 617 430.8 512.6 430.8 503.3 440.1 503.3 584.5 512.6 593.8 618 593.8 627.3 584.5 627.3 569.6 618 560.3 538.2 560.3"/>
  <polygon class="st0" points="767.4 430.8 758.1 440.1 758.1 528.9 683.7 434.3 676.4 430.8 661.1 430.8 651.8 440.1 651.8 584.5 661.1 593.8 677 593.8 686.3 584.5 686.3 492.9 763 590.2 770.3 593.8 783.3 593.8 792.5 584.5 792.5 440.1 783.3 430.8 767.4 430.8"/>
  <path class="st0" d="M1030.2,483.4v-.4c0-13.7-4.9-26.1-13.9-35-11.1-11.1-28-17.2-47.6-17.2h-62.1l-9.3,9.3v144.4l9.3,9.3h16.3l9.3-9.3v-46.8h27.3l39.1,52.4,7.5,3.7h20l7.4-14.9-36.2-48.2c20.9-8.2,32.9-25.1,32.9-47.3ZM932.2,464.4h35.3c10.3,0,27.6,2.5,27.6,19.2v.4c0,15-14.4,20.4-27.8,20.4h-35.1v-40Z"/>
  <path class="st0" d="M1133.5,428.3c-23.3,0-44.7,9-60.1,25.3-14.8,15.7-23,36.5-23,58.7v.4c0,22.2,8.1,42.9,22.8,58.5,15.3,16.2,36.6,25.1,59.9,25.1s44.7-9,60.2-25.3c14.8-15.7,23-36.5,23-58.7v-.4c0-22.2-8.1-42.9-22.8-58.5-15.3-16.2-36.6-25.1-59.9-25.1ZM1133.5,562.6c-27.2,0-47.6-21.6-47.6-50.3v-.4c0-28.4,20.3-49.9,47.2-49.9s47.6,21.6,47.6,50.3v.4c0,28.4-20.3,49.9-47.2,49.9Z"/>
  <path class="st0" d="M1371.2,544.4h-12.9c-13.9,13.2-24.8,18.2-40.2,18.2-26.6,0-46.6-21.6-46.6-50.3v-.4c0-28.4,20-49.9,46.6-49.9s26.2,5.2,39,17.2l13.2-.4,11.1-12-.4-13.1c-13.3-12.6-31.2-25.4-62.7-25.4-46.2,0-82.3,36.9-82.3,84v.4c0,22.6,8.2,43.6,23.2,59.1,15.2,15.8,36,24.4,58.5,24.4,32.3,0,50.7-14.2,64.4-28.1v-13.2c-.1,0-10.8-10.5-10.8-10.5Z"/>
  <polygon class="st0" points="1541.1 446.6 1534.5 430.8 1513.4 430.8 1506.7 433.6 1439.8 503.2 1439.8 440.1 1430.5 430.8 1414.2 430.8 1404.9 440.1 1404.9 584.5 1414.2 593.8 1430.5 593.8 1439.8 584.5 1439.8 549.5 1460.5 528.6 1509.5 590.3 1516.7 593.8 1537.2 593.8 1544.4 578.7 1485 503.8 1541.1 446.6"/>
  <path class="st0" d="M110.2,270.3h44.8c44,0,89.1-8,89.1-67V52.5l-9.6-9.6h-15.2l-9.6,9.6v153.5c0,17.6-8.5,26.5-55.2,26.5h-44.2c-52.6,0-59.4-19-59.4-35.5s3.9-27.6,9.8-43.2l-5.7-12.5-13.1-4.8-12.2,5.4c-8.3,20.2-12.7,40.2-12.7,57.7,0,63.2,53.2,70.6,93.3,70.6Z"/>
  <path class="st0" d="M293.3,333.3c36.7,0,64.8-11.6,83.7-34.5,16-19.5,24.5-46.8,24.5-79s-23.2-85.5-67.6-85.5-37.3,7.8-50,21.9c-12.1,13.6-18.8,32.1-18.8,52.2,0,36.3,24.2,58.9,63.1,58.9s24.4-2.9,32.8-7c-12.5,25.6-41.4,35.3-66.8,35.3s-29.9-2.5-35.3-3.9l-11.9,8.2-2.1,17.3,6.7,10.4c9.4,2.9,25.9,5.8,41.7,5.8ZM332.2,172c23.4,0,32.8,25.1,34.9,40.5-5,8.6-17.1,17-37.3,17s-30.7-14.4-30.7-22.9c0-16.8,11.6-34.6,33.1-34.6Z"/>
  <path class="st0" d="M475.5,146.8l-14.6,3.9-6.8,11.7c9.1,34.6,14.3,58.9,14.3,80.6,0,38.5-32.8,52.5-54.9,52.5s-13.3-.6-19.6-1.7l-11.2,8.5-1.8,17.6,6.9,10.2c5.3,1.5,15.3,3.1,25.6,3.1,27.1,0,50-10.1,66.4-29.3,14.4-16.9,22.4-39.4,22.4-63.3s-4.8-50.9-15-87.1l-11.7-6.7Z"/>
  <path class="st0" d="M684.9,337.5c52,0,89-25.5,98.5-67.2h182.8s0,0,0,0c19.2,0,35.4-5.6,46.7-16.1,12-11.1,18.4-27.4,18.4-47.3s-5-47.3-8.2-64l-11.6-7.5-14.6,3.3-7.3,11.2c3.4,17.2,7.9,42,7.9,59.4s-3.8,23.2-31,23.2h-181.1c-2.1-24.2-8.6-49.3-13.5-66.8l-12-6.6-15.2,4.5-6.6,11.7c6.6,24.7,13.7,52.9,13.7,75.8,0,43.9-45.9,48.6-65.7,48.6-41.6,0-62.7-16.9-62.7-50.1s6.2-40.2,12.3-54.1l-5.5-12.9-13.1-4.8-12.1,5.2c-10.5,23.6-15.8,47.1-15.8,69.6,0,52.4,36.7,84.9,95.7,84.9Z"/>
  <path class="st0" d="M1121.4,313.7c12.2-11.3,20.9-26.5,25.1-43.4h181.4c48.9,0,88.8-9.2,158.3-57.4h47.8l9.6-9.2.9-20-9.6-10.1h-34.1c-11.9,0-17.5-3.2-41.7-18.1l-2.2-1.4c-1.7-1.1-3.4-2.1-5.1-3.2-15.8-10-33.6-21.3-60.3-21.3s-50.8,13.2-59.7,25.4l-.4,10.8,7.5,11.9,14.2,2.4c6-4.8,18.8-12.8,37.3-12.8s33.3,8.8,49.5,18.1c3.8,2.2,7.3,4.3,10.5,6.3,1.1.6,2.1,1.3,3.1,1.9-59.8,35.7-92.3,38.8-125.2,38.8h-179.2c-1.3-18-4.9-39.4-11.7-69l-11.8-7.2-14.9,3.9-7,11.4c6.8,30.5,12,55.6,12,77.4s-11.5,49.5-54.9,49.5-13.3-.6-19.6-1.6l-11.2,8.5-1.8,17.6,6.9,10.2c5.3,1.5,15.3,3.1,25.6,3.1,23.9,0,44.9-7.8,60.8-22.6Z"/>
  <polygon class="st0" points="975.4 292.8 975.4 307.1 985.5 317.2 999.8 317.2 1009.9 307.1 1009.9 292.8 999.8 282.7 985.5 282.7 975.4 292.8"/>
  <polygon class="st0" points="914.8 292.8 914.8 307.1 924.9 317.2 939.2 317.2 949.3 307.1 949.3 292.8 939.2 282.7 924.9 282.7 914.8 292.8"/>
  <polygon class="st0" points="694.9 152.9 705 142.8 705 128.5 694.9 118.4 680.6 118.4 670.5 128.5 670.5 142.8 680.6 152.9 694.9 152.9"/>
  <polygon class="st0" points="1439.5 271.9 1439.5 286.2 1449.6 296.3 1463.9 296.3 1474 286.2 1474 271.9 1463.9 261.8 1449.6 261.8 1439.5 271.9"/>
  <path class="st0" d="M131.4,172.7c26.8,0,29.7-15.6,29.7-22.3,0-11.6-7.9-17.9-18.4-21.9l14.3-7.6,2.7-7.2-3.3-8.7-8.3-2.9-31,17.8-2.9,5v12.8l4.9,5.7c16,2.5,20.8,5.3,22.2,6.6-1.5.6-4.6,1.2-10,1.2h-18l-5.8,5.8v9.8l5.8,5.8h18.2Z"/>
</svg>