<?xml version="1.0" encoding="UTF-8"?>
<svg id="Layer_1" xmlns="http://www.w3.org/2000/svg" version="1.1" viewBox="0 0 2048 2048">
  <!-- Generator: Adobe Illustrator 29.0.1, SVG Export Plug-In . SVG Version: 2.1.0 Build 192)  -->
  <defs>
    <style>
      .st0 {
        fill: #aff9c8;
      }
    </style>
  </defs>
  <path class="st0" d="M341.6,1202.2l-9.3,9.3v14.6l9.3,9.3h34.6v21.9c-9.2,6.2-21,9.8-32.4,9.8-28.6,0-47.8-20.4-47.8-50.7v-.4c0-28,20-49.9,45.6-49.9s28,5.7,37.8,14.2l13.2-1,10.5-12.4-1.1-13.1c-17.8-15-35.7-21.4-59.8-21.4s-44.1,9-59.3,25.5c-14.5,15.6-22.4,36.4-22.4,58.5v.4c0,22.9,7.9,43.8,22.2,59,15.2,16.1,36.1,24.6,60.5,24.6s53.9-15.3,64.2-24.4l3.1-6.9v-57.6l-9.3-9.3h-59.6Z"/>
  <path class="st0" d="M571.8,1187.6v-.4c0-13.7-4.9-26.1-13.9-35-11.1-11.1-28-17.2-47.6-17.2h-62.1l-9.3,9.3v144.4l9.3,9.3h16.3l9.3-9.3v-46.8h27.3l39.1,52.4,7.5,3.7h20l7.4-14.9-36.2-48.2c20.9-8.2,32.9-25.1,32.9-47.3ZM473.8,1168.6h35.3c10.3,0,27.6,2.5,27.6,19.2v.4c0,15-14.4,20.4-27.8,20.4h-35.1v-40Z"/>
  <polygon class="st0" points="633.3 1264.5 633.3 1232.6 702.8 1232.6 712.1 1223.3 712.1 1208.4 702.8 1199.1 633.3 1199.1 633.3 1168.4 712 1168.4 721.3 1159.1 721.3 1144.3 712 1135 607.7 1135 598.4 1144.3 598.4 1288.7 607.7 1298 713.1 1298 722.4 1288.7 722.4 1273.8 713.1 1264.5 633.3 1264.5"/>
  <polygon class="st0" points="781.8 1264.5 781.8 1232.6 851.3 1232.6 860.6 1223.3 860.6 1208.4 851.3 1199.1 781.8 1199.1 781.8 1168.4 860.6 1168.4 869.9 1159.1 869.9 1144.3 860.6 1135 756.2 1135 746.9 1144.3 746.9 1288.7 756.2 1298 861.6 1298 870.9 1288.7 870.9 1273.8 861.6 1264.5 781.8 1264.5"/>
  <polygon class="st0" points="1010.9 1135 1001.6 1144.3 1001.6 1233.1 927.3 1138.5 920 1135 904.7 1135 895.4 1144.3 895.4 1288.7 904.7 1298 920.6 1298 929.9 1288.7 929.9 1197.1 1006.5 1294.4 1013.8 1298 1026.8 1298 1036.1 1288.7 1036.1 1144.3 1026.8 1135 1010.9 1135"/>
  <path class="st0" d="M1273.7,1187.6v-.4c0-13.7-4.9-26.1-13.9-35-11.1-11.1-28-17.2-47.6-17.2h-62.1l-9.3,9.3v144.4l9.3,9.3h16.3l9.3-9.3v-46.8h27.3l39.1,52.4,7.5,3.7h20l7.4-14.9-36.2-48.2c20.9-8.2,32.9-25.1,32.9-47.3ZM1175.7,1168.6h35.3c10.3,0,27.6,2.5,27.6,19.2v.4c0,15-14.4,20.4-27.8,20.4h-35.1v-40Z"/>
  <path class="st0" d="M1377.1,1132.5c-23.3,0-44.7,9-60.1,25.3-14.8,15.7-23,36.5-23,58.7v.4c0,22.2,8.1,42.9,22.8,58.5,15.3,16.2,36.6,25.1,59.9,25.1s44.7-9,60.2-25.3c14.8-15.7,23-36.5,23-58.7v-.4c0-22.2-8.1-42.9-22.8-58.5-15.3-16.2-36.6-25.1-59.9-25.1ZM1377.1,1266.8c-27.2,0-47.6-21.6-47.6-50.3v-.4c0-28.4,20.3-49.9,47.2-49.9s47.6,21.6,47.6,50.3v.4c0,28.4-20.3,49.9-47.2,49.9Z"/>
  <path class="st0" d="M1614.8,1248.6h-12.9c-13.9,13.2-24.8,18.2-40.2,18.2-26.6,0-46.6-21.6-46.6-50.3v-.4c0-28.4,20-49.9,46.6-49.9s26.2,5.2,39,17.2l13.2-.4,11.1-12-.4-13.1c-13.3-12.6-31.2-25.4-62.7-25.4-46.2,0-82.3,36.9-82.3,84v.4c0,22.6,8.2,43.6,23.2,59.1,15.2,15.8,36,24.4,58.5,24.4,32.3,0,50.7-14.2,64.4-28.1v-13.2c-.1,0-10.8-10.5-10.8-10.5Z"/>
  <polygon class="st0" points="1784.7 1150.8 1778 1135 1757 1135 1750.3 1137.8 1683.4 1207.4 1683.4 1144.3 1674.1 1135 1657.8 1135 1648.5 1144.3 1648.5 1288.7 1657.8 1298 1674.1 1298 1683.4 1288.7 1683.4 1253.7 1704.1 1232.8 1753 1294.5 1760.3 1298 1780.7 1298 1788 1282.9 1728.5 1208 1784.7 1150.8"/>
  <path class="st0" d="M353.8,974.5h44.8c44,0,89.1-8,89.1-67v-150.8l-9.6-9.6h-15.2l-9.6,9.6v153.5c0,17.6-8.5,26.5-55.2,26.5h-44.2c-52.6,0-59.4-19-59.4-35.5s3.9-27.6,9.8-43.2l-5.7-12.5-13.1-4.8-12.2,5.4c-8.3,20.2-12.7,40.2-12.7,57.7,0,63.2,53.2,70.6,93.3,70.6Z"/>
  <path class="st0" d="M536.9,1037.5c36.7,0,64.8-11.6,83.7-34.5,16-19.5,24.5-46.8,24.5-79s-23.2-85.5-67.6-85.5-37.3,7.8-50,21.9c-12.1,13.6-18.8,32.1-18.8,52.2,0,36.3,24.2,58.9,63.1,58.9s24.4-2.9,32.8-7c-12.5,25.6-41.4,35.3-66.8,35.3s-29.9-2.5-35.3-3.9l-11.9,8.2-2.1,17.3,6.7,10.4c9.4,2.9,25.9,5.8,41.7,5.8ZM575.7,876.2c23.4,0,32.8,25.1,34.9,40.5-5,8.6-17.1,17-37.3,17s-30.7-14.4-30.7-22.9c0-16.8,11.6-34.6,33.1-34.6Z"/>
  <path class="st0" d="M719,851l-14.6,3.9-6.8,11.7c9.1,34.6,14.3,58.9,14.3,80.6,0,38.5-32.8,52.5-54.9,52.5s-13.3-.6-19.6-1.7l-11.2,8.5-1.8,17.6,6.9,10.2c5.3,1.5,15.3,3.1,25.6,3.1,27.1,0,50-10.1,66.4-29.3,14.4-16.9,22.4-39.4,22.4-63.3s-4.8-50.9-15-87.1l-11.7-6.7Z"/>
  <path class="st0" d="M928.5,1041.7c52,0,89-25.5,98.5-67.2h182.8s0,0,0,0c19.2,0,35.4-5.6,46.7-16.1,12-11.1,18.4-27.4,18.4-47.3s-5-47.3-8.2-64l-11.6-7.5-14.6,3.3-7.3,11.2c3.4,17.2,7.9,42,7.9,59.4s-3.8,23.2-31,23.2h-181.1c-2.1-24.2-8.6-49.3-13.5-66.8l-12-6.6-15.2,4.5-6.6,11.7c6.6,24.7,13.7,52.9,13.7,75.8,0,43.9-45.9,48.6-65.7,48.6-41.6,0-62.7-16.9-62.7-50.1s6.2-40.2,12.3-54.1l-5.5-12.9-13.1-4.8-12.1,5.2c-10.5,23.6-15.8,47.1-15.8,69.6,0,52.4,36.7,84.9,95.7,84.9Z"/>
  <path class="st0" d="M1364.9,1017.9c12.2-11.3,20.9-26.5,25.1-43.4h181.4c48.9,0,88.8-9.2,158.3-57.4h47.8l9.6-9.2.9-20-9.6-10.1h-34.1c-11.9,0-17.5-3.2-41.7-18.1l-2.2-1.4c-1.7-1.1-3.4-2.1-5.1-3.2-15.8-10-33.6-21.3-60.3-21.3s-50.8,13.2-59.7,25.4l-.4,10.8,7.5,11.9,14.2,2.4c6-4.8,18.8-12.8,37.3-12.8s33.3,8.8,49.5,18.1c3.8,2.2,7.3,4.3,10.5,6.3,1.1.6,2.1,1.3,3.1,1.9-59.8,35.7-92.3,38.8-125.2,38.8h-179.2c-1.3-18-4.9-39.4-11.7-69l-11.8-7.2-14.9,3.9-7,11.4c6.8,30.5,12,55.6,12,77.4s-11.5,49.5-54.9,49.5-13.3-.6-19.6-1.6l-11.2,8.5-1.8,17.6,6.9,10.2c5.3,1.5,15.3,3.1,25.6,3.1,23.9,0,44.9-7.8,60.8-22.6Z"/>
  <polygon class="st0" points="1219 997 1219 1011.3 1229.1 1021.4 1243.4 1021.4 1253.5 1011.3 1253.5 997 1243.4 986.9 1229.1 986.9 1219 997"/>
  <polygon class="st0" points="1158.3 997 1158.3 1011.3 1168.4 1021.4 1182.7 1021.4 1192.8 1011.3 1192.8 997 1182.7 986.9 1168.4 986.9 1158.3 997"/>
  <polygon class="st0" points="938.5 857.1 948.6 847 948.6 832.7 938.5 822.6 924.2 822.6 914.1 832.7 914.1 847 924.2 857.1 938.5 857.1"/>
  <polygon class="st0" points="1683 976.1 1683 990.4 1693.1 1000.5 1707.4 1000.5 1717.5 990.4 1717.5 976.1 1707.4 966 1693.1 966 1683 976.1"/>
  <path class="st0" d="M374.9,876.9c26.8,0,29.7-15.6,29.7-22.3,0-11.6-7.9-17.9-18.4-21.9l14.3-7.6,2.7-7.2-3.3-8.7-8.3-2.9-31,17.8-2.9,5v12.8l4.9,5.7c16,2.5,20.8,5.3,22.2,6.6-1.5.6-4.6,1.2-10,1.2h-18l-5.8,5.8v9.8l5.8,5.8h18.2Z"/>
</svg>