<?xml version="1.0" encoding="UTF-8"?>
<svg id="Layer_1" xmlns="http://www.w3.org/2000/svg" version="1.1" viewBox="0 0 1080 1080">
  <!-- Generator: Adobe Illustrator 29.0.1, SVG Export Plug-In . SVG Version: 2.1.0 Build 192)  -->
  <defs>
    <style>
      .st0 {
        fill: #aff9c8;
      }

      .st1 {
        fill: #014751;
      }
    </style>
  </defs>
  <rect class="st1" x=".1" y=".4" width="1080" height="1080" rx="216" ry="216"/>
  <g>
    <path class="st0" d="M862,598.5l16.8-158.8-230-149.3h-109.7v500h109.7v-145.1h108.5l99.2,145.1h95v-69l-89.5-122.9h0ZM744.4,560.4h-95.6v-119.4l113.7,64.3-18.1,55.1Z"/>
    <path class="st0" d="M383.9,509.8h-61.1v107.1h61.1v51.3h-113.1l-2.2-2.9c-6-58.9-11.9-117.8-17.9-176.6,17.9-23.1,35.7-46.3,53.5-69.4,26.5-2.2,53.1-4.3,79.5-6.5v49.5h108.9v-171.8h-134.7l-121.1,23c-36.2,47.4-72.3,94.9-108.5,142.3,7.9,86.2,15.9,172.3,23.8,258.4l57.8,76.2h282.6v-280.5h-108.9.1Z"/>
  </g>
</svg>